<svg width="81" height="80" fill="none" xmlns="http://www.w3.org/2000/svg"><path d="M58.633 12.267a6.4 6.4 0 00-6.4 6.4c0 5.333 5.334 10.666 6.4 10.666 1.067 0 6.4-5.333 6.4-10.666a6.4 6.4 0 00-6.4-6.4zm0 9.6a3.2 3.2 0 110-6.4 3.2 3.2 0 010 6.4z" fill="#341409"/><path d="M58.633 30.4c-1.868 0-7.466-6.1-7.466-11.733 0-4.117 3.35-7.467 7.466-7.467 4.117 0 7.467 3.35 7.467 7.467 0 5.633-5.598 11.733-7.467 11.733zm0-17.067a5.34 5.34 0 00-5.333 5.334c0 4.38 4.04 8.816 5.333 9.543 1.293-.727 5.334-5.162 5.334-9.543a5.34 5.34 0 00-5.334-5.334zm0 9.6a4.271 4.271 0 01-4.266-4.266 4.271 4.271 0 014.266-4.267 4.271 4.271 0 014.267 4.267 4.271 4.271 0 01-4.267 4.266zm0-6.4a2.136 2.136 0 00-2.133 2.134c0 1.176.957 2.133 2.133 2.133a2.136 2.136 0 002.134-2.133 2.136 2.136 0 00-2.134-2.134z" fill="#E7490F"/><circle cx="58.633" cy="18.68" fill="#341409" r="2.222"/><path d="M19.167 20.8a3.204 3.204 0 01-3.2-3.2c0-1.765 1.435-3.2 3.2-3.2 1.764 0 3.2 1.435 3.2 3.2 0 1.764-1.436 3.2-3.2 3.2zm0-4.267a1.068 1.068 0 000 2.134 1.068 1.068 0 000-2.134z" fill="#E7490F"/><path d="M26.633 29.333c-7.069 0-12.8 5.73-12.8 12.8 0 10.667 10.667 21.334 12.8 21.334 2.134 0 12.8-10.667 12.8-21.334 0-7.07-5.73-12.8-12.8-12.8zm0 17.067a4.267 4.267 0 110-8.534 4.267 4.267 0 010 8.534z" fill="#341409"/><path d="M26.633 64.533c-2.93 0-13.866-11.387-13.866-22.4 0-7.646 6.22-13.866 13.866-13.866S40.5 34.487 40.5 42.133c0 11.013-10.936 22.4-13.867 22.4zm0-34.133c-6.47 0-11.733 5.263-11.733 11.733 0 9.972 10.005 19.96 11.775 20.27 1.686-.31 11.692-10.298 11.692-20.27 0-6.47-5.264-11.733-11.734-11.733z" fill="#E7490F"/><path d="M26.633 50.667c-4.705 0-8.533-3.828-8.533-8.534 0-4.705 3.828-8.533 8.533-8.533 4.706 0 8.534 3.828 8.534 8.533 0 4.706-3.828 8.534-8.534 8.534zm0-14.934a6.407 6.407 0 00-6.4 6.4c0 3.53 2.871 6.4 6.4 6.4 3.53 0 6.4-2.87 6.4-6.4 0-3.529-2.87-6.4-6.4-6.4zm10.042-12.358a1.06 1.06 0 01-.754-.313l-3.017-3.016a1.067 1.067 0 011.509-1.508l3.016 3.016a1.067 1.067 0 01-.754 1.82z" fill="#E7490F"/><path d="M33.658 23.375a1.067 1.067 0 01-.754-1.82l3.017-3.017a1.067 1.067 0 011.508 1.508l-3.016 3.016a1.063 1.063 0 01-.755.313zM45.3 17.208a1.208 1.208 0 100-2.416 1.208 1.208 0 000 2.416zM56.5 68.8h-4.267a1.066 1.066 0 110-2.133H56.5a1.066 1.066 0 110 2.133zm-8.533 0H43.7a1.066 1.066 0 110-2.133h4.267a1.066 1.066 0 110 2.133zm-8.534 0h-4.266a1.066 1.066 0 110-2.133h4.266a1.066 1.066 0 110 2.133zm-8.533 0h-4.267a1.066 1.066 0 110-2.133H30.9a1.066 1.066 0 110 2.133zm29.864-.007a1.067 1.067 0 01-.046-2.132 5.586 5.586 0 003.293-1.255 1.068 1.068 0 011.346 1.656 7.712 7.712 0 01-4.593 1.73zm6.19-5.02a1.067 1.067 0 01-1.034-1.333 5.76 5.76 0 00.18-1.418v-1.513c0-.293-.023-.59-.069-.883a1.067 1.067 0 012.108-.328c.063.401.094.808.094 1.212v1.514a7.863 7.863 0 01-.247 1.948c-.124.481-.557.8-1.032.8zm-1.785-7.974c-.271 0-.54-.102-.75-.307a5.594 5.594 0 00-3.158-1.568 1.067 1.067 0 01-.905-1.207 1.075 1.075 0 011.207-.905 7.716 7.716 0 014.354 2.161 1.066 1.066 0 01-.748 1.826zm-8.02-1.932h-.34a7.737 7.737 0 01-4.295-1.294 1.066 1.066 0 111.181-1.777c.923.613 2 .937 3.115.937h.34a1.066 1.066 0 110 2.134zm-6.644-4.407c-.435 0-.843-.268-1.002-.701a7.751 7.751 0 01-.47-2.668v-1.917a1.066 1.066 0 112.134 0v1.917c0 .667.114 1.318.34 1.936a1.067 1.067 0 01-1.002 1.433zm-.393-8.486a1.066 1.066 0 01-1.066-1.13 7.71 7.71 0 011.794-4.519 1.067 1.067 0 011.637 1.368 5.593 5.593 0 00-1.3 3.277 1.067 1.067 0 01-1.065 1.004zm5.105-6.117a1.067 1.067 0 01-.251-2.103 7.8 7.8 0 011.842-.22h1.825a1.066 1.066 0 110 2.133H56.81a5.7 5.7 0 00-1.34.16c-.085.02-.169.03-.252.03z" fill="#E7490F"/><circle cx="26.722" cy="42.222" r="4.889" fill="#341409"/></svg>