<svg width="81" height="80" fill="none" xmlns="http://www.w3.org/2000/svg"><path d="M68.448 48.903V26.959c0-4.711-3.816-8.53-8.523-8.53h-33.48c-4.707 0-8.523 3.819-8.523 8.53v32.457c0 4.711 3.816 8.53 8.523 8.53h33.48c4.707 0 8.523-3.819 8.523-8.53v-6.233" fill="#341409"/><path d="M59.925 69h-33.48c-5.281 0-9.576-4.299-9.576-9.584V26.959c0-5.285 4.295-9.584 9.575-9.584h33.48c5.28 0 9.576 4.3 9.576 9.584v21.944a1.053 1.053 0 11-2.105 0V26.959c0-4.123-3.351-7.477-7.47-7.477h-33.48c-4.12 0-7.471 3.354-7.471 7.477v32.457c0 4.123 3.35 7.477 7.47 7.477h33.48c4.12 0 7.47-3.354 7.47-7.477v-6.233a1.053 1.053 0 112.106 0v6.233c0 5.285-4.295 9.584-9.575 9.584z" fill="#E7490F"/><path d="M35.816 26.857a2.106 2.106 0 10-.002-4.213 2.106 2.106 0 00.002 4.213zm14.737 0a2.106 2.106 0 10-.002-4.212 2.106 2.106 0 00.002 4.212z" fill="#E7490F"/><path d="M35.816 25.803a1.053 1.053 0 01-1.053-1.053v-9.483a1.053 1.053 0 112.105 0v9.483c0 .581-.47 1.053-1.052 1.053zm14.737 0A1.053 1.053 0 0149.5 24.75v-9.483a1.053 1.053 0 112.105 0v9.483c0 .581-.471 1.053-1.052 1.053zm-40-3.16a1.053 1.053 0 10-.001-2.106 1.053 1.053 0 000 2.106zm6.316-7.375a1.054 1.054 0 01-.744-1.798l3.157-3.161a1.054 1.054 0 011.488 1.49l-3.157 3.16a1.05 1.05 0 01-.744.309z" fill="#E7490F"/><path d="M20.026 15.268a1.05 1.05 0 01-.744-.309l-3.158-3.16a1.054 1.054 0 011.489-1.49l3.158 3.16a1.054 1.054 0 01-.745 1.799z" fill="#E7490F"/><path d="M21.08 32.125V54.25a7.368 7.368 0 01-6.316 7.291v.084h44.982a5.547 5.547 0 005.544-5.55v-23.95H21.08z" fill="#341409"/><path d="M59.745 62.678H14.763a1.053 1.053 0 01-1.052-1.053c0-.524.385-1.053.903-1.127 3.085-.443 5.412-3.129 5.412-6.248V32.125c0-.582.472-1.054 1.053-1.054h44.21c.582 0 1.053.472 1.053 1.054v23.95c0 3.641-2.96 6.603-6.597 6.603zm-44.982-1.137h.01-.01zm4.494-.97h40.488a4.498 4.498 0 004.492-4.495V33.178H22.132V54.25a8.438 8.438 0 01-2.875 6.321z" fill="#E7490F"/><path d="M33.711 43.714h17.895v3.161H33.711v-3.16z" fill="#341409"/><path d="M51.605 47.928H33.711a1.053 1.053 0 01-1.053-1.053v-3.16c0-.583.471-1.054 1.053-1.054h17.894c.582 0 1.053.471 1.053 1.053v3.16c0 .583-.471 1.054-1.053 1.054zm-16.842-2.107h15.79v-1.053h-15.79v1.053z" fill="#E7490F"/><path d="M29.5 38.446h4.211v13.697h-4.21V38.446z" fill="#341409"/><path d="M33.71 53.196H29.5a1.053 1.053 0 01-1.053-1.053V38.446c0-.581.472-1.053 1.053-1.053h4.21c.582 0 1.053.472 1.053 1.053v13.697c0 .582-.471 1.053-1.052 1.053zm-3.157-2.107h2.105V39.5h-2.105v11.59z" fill="#E7490F"/><path d="M51.606 38.446h4.21v13.697h-4.21V38.446z" fill="#341409"/><path d="M55.816 53.196h-4.21a1.053 1.053 0 01-1.053-1.053V38.446c0-.581.47-1.053 1.052-1.053h4.21c.582 0 1.053.472 1.053 1.053v13.697c0 .582-.47 1.053-1.052 1.053zm-3.158-2.107h2.105V39.5h-2.105v11.59z" fill="#E7490F"/><path d="M25.29 40.554h4.21v9.482h-4.21v-9.482z" fill="#341409"/><path d="M29.5 51.09h-4.21a1.053 1.053 0 01-1.053-1.054v-9.482c0-.582.471-1.054 1.053-1.054h4.21c.581 0 1.053.472 1.053 1.054v9.482c0 .582-.472 1.053-1.053 1.053zm-3.158-2.108h2.106v-7.375h-2.106v7.375z" fill="#E7490F"/><path d="M55.816 40.554h4.211v9.482h-4.21v-9.482z" fill="#341409"/><path d="M60.026 51.09h-4.21a1.053 1.053 0 01-1.053-1.054v-9.482c0-.582.471-1.054 1.053-1.054h4.21c.582 0 1.053.472 1.053 1.054v9.482c0 .582-.471 1.053-1.053 1.053zm-3.158-2.108h2.106v-7.375h-2.106v7.375zM33.71 57.41a1.053 1.053 0 100-2.106 1.053 1.053 0 000 2.107zm4.211 0a1.053 1.053 0 100-2.106 1.053 1.053 0 000 2.107zm4.211 0a1.053 1.053 0 10-.001-2.106 1.053 1.053 0 000 2.107zm4.21 0a1.053 1.053 0 100-2.106 1.053 1.053 0 000 2.107zm4.211 0a1.053 1.053 0 10-.001-2.106 1.053 1.053 0 000 2.107z" fill="#E7490F"/></svg>