<svg width="81" height="80" fill="none" xmlns="http://www.w3.org/2000/svg"><path d="M16.856 57.741a1.208 1.208 0 100-2.415 1.208 1.208 0 000 2.415z" fill="#E7490F"/><path d="M49.39 24a3.733 3.733 0 100-7.467 3.733 3.733 0 000 7.467z" fill="#341409"/><path d="M49.39 25.067a4.805 4.805 0 01-4.8-4.8c0-2.647 2.152-4.8 4.8-4.8 2.646 0 4.8 2.153 4.8 4.8s-2.154 4.8-4.8 4.8zm0-7.467a2.67 2.67 0 00-2.668 2.667 2.67 2.67 0 002.667 2.666 2.67 2.67 0 002.667-2.666 2.67 2.67 0 00-2.667-2.667z" fill="#E7490F"/><path d="M53.776 21.867H46.07c-4.352 0-7.88 3.788-7.88 8.461v20.339h17.503c3.294 0 5.964-2.868 5.964-6.405V30.328c0-4.673-3.528-8.461-7.88-8.461z" fill="#341409"/><path d="M55.691 51.733H38.19c-.59 0-1.067-.477-1.067-1.066V30.328c0-5.253 4.014-9.528 8.946-9.528h7.708c4.933 0 8.946 4.274 8.946 9.528v13.934c0 4.12-3.154 7.471-7.03 7.471zM39.256 49.6H55.69c2.701 0 4.898-2.395 4.898-5.338V30.328c0-4.078-3.056-7.395-6.812-7.395h-7.709c-3.756 0-6.812 3.317-6.812 7.395V49.6z" fill="#E7490F"/><path d="M63.79 67.733V56.62a5.953 5.953 0 00-5.954-5.952H45.4a9.343 9.343 0 00-9.343 9.343v7.723" fill="#341409"/><path d="M63.79 68.8c-.59 0-1.068-.477-1.068-1.067V56.62a4.891 4.891 0 00-4.886-4.886H45.4c-4.564 0-8.277 3.714-8.277 8.277v7.723a1.066 1.066 0 11-2.134 0V60.01c0-5.74 4.67-10.41 10.41-10.41h12.437c3.871 0 7.02 3.15 7.02 7.02v11.113c0 .59-.477 1.067-1.067 1.067z" fill="#E7490F"/><path d="M52.59 46.4c-5.008 0-9.068-3.582-9.068-8v-8h18.134v8c0 4.418-4.06 8-9.067 8z" fill="#341409"/><path d="M52.59 47.467c-5.588 0-10.134-4.068-10.134-9.067v-8c0-.59.477-1.067 1.066-1.067h18.134c.59 0 1.066.478 1.066 1.067v8c0 5-4.545 9.067-10.133 9.067zm-8-16V38.4c0 3.823 3.588 6.933 8 6.933 4.41 0 8-3.11 8-6.933v-6.933h-16z" fill="#E7490F"/><path d="M52.056 41.067a2.673 2.673 0 002.133 1.066c.875 0 1.644-.422 2.134-1.066h-4.267zm3.2 9.6V46.4h-5.334v4.267H47.79v.533a4.8 4.8 0 009.6 0v-.533h-2.133z" fill="#341409"/><path d="M52.59 57.067a5.874 5.874 0 01-5.868-5.867v-.533c0-.59.478-1.067 1.067-1.067h1.067v-3.2c0-.59.477-1.067 1.066-1.067h5.334c.59 0 1.066.478 1.066 1.067v3.2h1.067c.59 0 1.067.477 1.067 1.067v.533a5.874 5.874 0 01-5.867 5.867zm-3.697-5.334a3.74 3.74 0 003.696 3.2 3.74 3.74 0 003.696-3.2h-1.03a1.066 1.066 0 01-1.066-1.066v-3.2h-3.2v3.2c0 .589-.477 1.066-1.067 1.066h-1.029zm6.363-20.266c-.59 0-1.067-.478-1.067-1.067v-2.133a1.066 1.066 0 112.133 0V30.4c0 .589-.477 1.067-1.066 1.067zM49.923 36.8a1.067 1.067 0 100-2.133 1.067 1.067 0 000 2.133zm8.533 0a1.067 1.067 0 100-2.133 1.067 1.067 0 000 2.133zm1.067 32c-.59 0-1.067-.478-1.067-1.067v-6.4a1.066 1.066 0 112.133 0v6.4c0 .59-.477 1.067-1.066 1.067z" fill="#E7490F"/><path d="M36.056 61.333v6.4h17.067v-6.4h-5.334v2.134h-6.4v-2.134" fill="#341409"/><path d="M53.123 68.8H36.056c-.59 0-1.067-.478-1.067-1.067v-6.4a1.066 1.066 0 112.134 0v5.334h14.933V62.4h-3.2v1.067c0 .589-.477 1.066-1.067 1.066h-6.4c-.59 0-1.067-.477-1.067-1.066v-2.134a1.066 1.066 0 112.134 0V62.4h4.266v-1.067c0-.589.478-1.066 1.067-1.066h5.334c.59 0 1.066.477 1.066 1.066v6.4c0 .59-.477 1.067-1.066 1.067z" fill="#E7490F"/><path d="M25.39 21.867l-17.067.257L16.856 8h17.066L25.39 21.867z" fill="#341409"/><path d="M8.323 23.19a1.067 1.067 0 01-.914-1.618l8.534-14.124c.193-.32.54-.515.913-.515h17.066a1.066 1.066 0 01.909 1.626l-8.534 13.867c-.19.31-.527.502-.892.507l-17.066.258h-.016zm17.066-1.323h.01-.01zm-7.932-12.8L10.23 21.029l14.557-.22 7.226-11.742H17.457zM47.79 65.6c-.59 0-1.068-.478-1.068-1.067V62.4a1.066 1.066 0 112.134 0v2.133c0 .59-.477 1.067-1.067 1.067z" fill="#E7490F"/><path d="M49.923 61.333L25.389 21.867l24.534 39.466z" fill="#341409"/><path d="M49.923 62.4c-.356 0-.705-.179-.907-.504L24.483 22.43a1.066 1.066 0 111.812-1.126L50.829 60.77a1.067 1.067 0 01-.906 1.63zm0 10.667c-.59 0-1.067-.478-1.067-1.067v-4.267a1.066 1.066 0 112.133 0V72c0 .59-.477 1.067-1.066 1.067zM2.99 26.134a1.066 1.066 0 01-.516-2L33.407 7.067a1.067 1.067 0 011.032 1.868L3.503 26a1.06 1.06 0 01-.514.133z" fill="#E7490F"/><path d="M14.723 29.333a1.066 1.066 0 01-.516-2l10.54-5.815a1.067 1.067 0 011.03 1.867l-10.54 5.816a1.06 1.06 0 01-.514.132z" fill="#E7490F"/><path d="M25.388 22.933c-.215 0-.431-.064-.619-.198l-7.466-5.333a1.067 1.067 0 01-.439-.736l-.88-7.038-9.318 4.66a1.066 1.066 0 11-.954-1.908L16.38 7.045a1.066 1.066 0 011.536.822l1.008 8.07 7.086 5.06a1.067 1.067 0 01-.62 1.935zm-6.49 21.775c-.273 0-.546-.104-.755-.312l-3.016-3.017a1.067 1.067 0 011.508-1.508l3.017 3.017a1.067 1.067 0 01-.755 1.82z" fill="#E7490F"/><path d="M15.88 44.708a1.067 1.067 0 01-.754-1.82l3.017-3.017a1.066 1.066 0 111.508 1.508l-3.016 3.017a1.062 1.062 0 01-.754.312zm8.443 5.567a1.208 1.208 0 100-2.416 1.208 1.208 0 000 2.416z" fill="#E7490F"/></svg>