<svg width="81" height="80" fill="none" xmlns="http://www.w3.org/2000/svg"><path d="M30.054 65.473L7.822 51.76a1.1 1.1 0 011.154-1.87l20.75 12.8L42.85 49.52a1.098 1.098 0 111.555 1.551L30.054 65.473z" fill="#E7490F"/><path d="M48.737 46.96a4.393 4.393 0 11-8.785 0 4.393 4.393 0 018.785 0z" fill="#341409"/><path d="M44.344 52.451a5.498 5.498 0 01-5.492-5.49 5.498 5.498 0 015.492-5.492 5.498 5.498 0 015.49 5.491 5.498 5.498 0 01-5.49 5.491zm0-8.786a3.299 3.299 0 00-3.295 3.295 3.299 3.299 0 003.295 3.295 3.299 3.299 0 003.294-3.295 3.299 3.299 0 00-3.294-3.295z" fill="#E7490F"/><path d="M23.477 21.903c0-1.325 1-2.4 2.254-2.4h39.422c1.245 0 2.254 1.086 2.254 2.4v20.462c0 1.324-1 2.399-2.254 2.399H25.73c-1.245 0-2.254-1.086-2.254-2.4v-20.46z" fill="#341409"/><path d="M65.153 45.862H25.732c-1.85 0-3.353-1.57-3.353-3.498v-20.46c0-1.93 1.504-3.499 3.353-3.499h39.42c1.85 0 3.353 1.57 3.353 3.498v20.46c0 1.93-1.504 3.499-3.352 3.499zm-39.421-25.26c-.638 0-1.157.583-1.157 1.301v20.46c0 .707.53 1.302 1.157 1.302h39.42c.638 0 1.157-.583 1.157-1.301v-20.46c0-.707-.53-1.302-1.156-1.302H25.732z" fill="#E7490F"/><path d="M31.165 27.192a2.196 2.196 0 11-4.393 0 2.196 2.196 0 014.393 0z" fill="#341409"/><path d="M28.969 30.486a3.298 3.298 0 01-3.295-3.294 3.298 3.298 0 013.295-3.295 3.298 3.298 0 013.294 3.295 3.298 3.298 0 01-3.294 3.294zm0-4.393a1.099 1.099 0 100 2.198 1.099 1.099 0 000-2.198z" fill="#E7490F"/><path d="M37.755 27.192a2.197 2.197 0 11-4.394 0 2.197 2.197 0 014.394 0z" fill="#341409"/><path d="M35.558 30.486a3.298 3.298 0 01-3.295-3.294 3.298 3.298 0 013.295-3.295 3.298 3.298 0 013.295 3.295 3.298 3.298 0 01-3.295 3.294zm0-4.393a1.099 1.099 0 10.001 2.198 1.099 1.099 0 00-.001-2.198z" fill="#E7490F"/><path d="M44.344 27.192a2.197 2.197 0 11-4.393 0 2.197 2.197 0 014.393 0z" fill="#341409"/><path d="M42.147 30.486a3.298 3.298 0 01-3.294-3.294 3.298 3.298 0 013.294-3.295 3.298 3.298 0 013.295 3.295 3.298 3.298 0 01-3.295 3.294zm0-4.393a1.1 1.1 0 000 2.197 1.099 1.099 0 000-2.197z" fill="#E7490F"/><path d="M67.407 27.192h3.29c1.216 0 2.202.974 2.202 2.195v6.59a2.196 2.196 0 01-2.202 2.196h-3.29V27.192z" fill="#341409"/><path d="M70.697 39.272h-3.29c-.607 0-1.098-.49-1.098-1.098V27.192c0-.607.49-1.099 1.098-1.099h3.29a3.3 3.3 0 013.3 3.295v6.59a3.3 3.3 0 01-3.3 3.294zm-2.192-2.196h2.192c.607 0 1.103-.492 1.103-1.098v-6.59a1.09 1.09 0 00-1.103-1.098h-2.192v8.786zM7.003 42.567H9.2v18.712H7.003V42.567zm5.68-30.644a1.097 1.097 0 01-1.098-1.099V6.431a1.097 1.097 0 112.196 0v4.393c0 .607-.49 1.099-1.098 1.099z" fill="#E7490F"/><path d="M14.88 9.726h-4.393a1.097 1.097 0 110-2.196h4.393a1.097 1.097 0 110 2.196zm49.727 52.026H55.82a1.097 1.097 0 110-2.197h8.786a1.097 1.097 0 110 2.197z" fill="#E7490F"/></svg>