<svg width="81" height="80" fill="none" xmlns="http://www.w3.org/2000/svg"><path d="M68.233 49.067a1.067 1.067 0 100-2.134 1.067 1.067 0 000 2.134zm-4.266-12.8a1.067 1.067 0 01-.754-1.82l3.2-3.201a1.067 1.067 0 011.508 1.508l-3.2 3.2a1.064 1.064 0 01-.754.313z" fill="#E7490F"/><path d="M67.167 36.267c-.273 0-.546-.105-.755-.313l-3.2-3.2a1.067 1.067 0 011.509-1.508l3.2 3.2a1.067 1.067 0 01-.754 1.82zM13.833 62.934a3.204 3.204 0 01-3.2-3.2c0-1.765 1.436-3.2 3.2-3.2 1.765 0 3.2 1.435 3.2 3.2 0 1.764-1.435 3.2-3.2 3.2zm0-4.267a1.068 1.068 0 000 2.133 1.068 1.068 0 000-2.133z" fill="#E7490F"/><path d="M29.833 13.867H21.3v6.4h4.267V60.8h33.066V17.86a3.993 3.993 0 00-3.992-3.993H29.833z" fill="#341409"/><path d="M58.633 61.867H25.567c-.59 0-1.067-.478-1.067-1.067V21.333h-3.2c-.59 0-1.067-.477-1.067-1.066v-6.4c0-.59.477-1.067 1.067-1.067h33.34c2.79 0 5.06 2.27 5.06 5.06V60.8c0 .59-.477 1.067-1.067 1.067zm-32-2.134h30.934V17.86a2.93 2.93 0 00-2.926-2.927H22.367V19.2h3.2c.59 0 1.066.478 1.066 1.067v39.466z" fill="#E7490F"/><path d="M25.567 60.8h33.066v5.333H25.567V60.8z" fill="#341409"/><path d="M58.633 67.2H25.567c-.59 0-1.067-.478-1.067-1.067V60.8c0-.589.477-1.067 1.067-1.067h33.066c.59 0 1.067.478 1.067 1.067v5.333c0 .59-.477 1.067-1.067 1.067zm-32-2.133h30.934v-3.2H26.633v3.2z" fill="#E7490F"/><path d="M25.567 40.533h-8.534v-22.4a4.266 4.266 0 118.534 0v22.4z" fill="#341409"/><path d="M25.567 41.6h-8.534c-.59 0-1.066-.478-1.066-1.067v-22.4A5.34 5.34 0 0121.3 12.8a5.34 5.34 0 015.333 5.333v22.4c0 .59-.477 1.067-1.066 1.067zM18.1 39.467h6.4V18.133c0-1.764-1.435-3.2-3.2-3.2a3.204 3.204 0 00-3.2 3.2v21.334z" fill="#E7490F"/><path d="M70.1 27.266l-4.748-3.8h-6.719V19.2H66.1c.484 0 .955.165 1.333.468l5.334 4.266a2.133 2.133 0 11-2.665 3.332z" fill="#341409"/><path d="M71.427 28.8c-.723 0-1.42-.243-1.993-.702l-4.456-3.565h-6.345c-.59 0-1.066-.477-1.066-1.066V19.2c0-.59.477-1.067 1.066-1.067H66.1c.724 0 1.434.25 2 .702l5.333 4.266a3.173 3.173 0 011.182 2.145 3.182 3.182 0 01-.682 2.353 3.18 3.18 0 01-2.505 1.201zM59.7 22.4h5.652c.243 0 .477.082.667.234l4.749 3.799a1.062 1.062 0 001.498-.166c.18-.223.26-.502.228-.785a1.06 1.06 0 00-.394-.715L66.766 20.5a1.07 1.07 0 00-.667-.233H59.7V22.4z" fill="#E7490F"/><path d="M10.9 27.266l4.748-3.8h9.919V19.2H14.9a2.13 2.13 0 00-1.333.468l-5.334 4.266a2.133 2.133 0 102.665 3.332z" fill="#341409"/><path d="M9.573 28.8a3.179 3.179 0 01-2.505-1.201 3.18 3.18 0 01-.682-2.353 3.172 3.172 0 011.183-2.145l5.332-4.266a3.213 3.213 0 012-.702h10.666c.59 0 1.066.478 1.066 1.067v4.267c0 .589-.477 1.066-1.066 1.066h-9.545l-4.456 3.565a3.176 3.176 0 01-1.993.702zm5.328-8.533a1.07 1.07 0 00-.667.233l-5.333 4.267a1.06 1.06 0 00-.395.715c-.03.283.05.562.228.784a1.063 1.063 0 001.498.167l4.75-3.8c.19-.15.424-.233.666-.233H24.5v-2.133h-9.599z" fill="#E7490F"/><path d="M53.3 39.822c0 2.16-1.91 3.911-4.267 3.911-2.356 0-4.266-1.75-4.266-3.91 0-2.161 4.266-7.823 4.266-7.823s4.267 5.662 4.267 7.822z" fill="#341409"/><path d="M49.033 44.8c-2.94 0-5.333-2.233-5.333-4.978 0-2.395 3.733-7.471 4.481-8.464.405-.535 1.3-.535 1.705 0 .747.993 4.48 6.069 4.48 8.464 0 2.745-2.392 4.978-5.333 4.978zm0-10.983c-1.53 2.186-3.2 4.962-3.2 6.005 0 1.568 1.436 2.844 3.2 2.844 1.765 0 3.2-1.276 3.2-2.844 0-1.042-1.668-3.819-3.2-6.006z" fill="#E7490F"/><path d="M62.9 53.689c0 2.16-1.91 3.911-4.267 3.911-2.356 0-4.266-1.75-4.266-3.911 0-2.16 4.266-7.822 4.266-7.822s4.267 5.662 4.267 7.822z" fill="#341409"/><path d="M58.633 58.667c-2.94 0-5.333-2.233-5.333-4.978 0-2.396 3.733-7.471 4.481-8.465.405-.534 1.3-.534 1.705 0 .747.994 4.48 6.07 4.48 8.465 0 2.745-2.392 4.978-5.333 4.978zm0-10.984c-1.53 2.187-3.2 4.963-3.2 6.006 0 1.568 1.436 2.844 3.2 2.844 1.765 0 3.2-1.276 3.2-2.844 0-1.043-1.668-3.82-3.2-6.006z" fill="#E7490F"/><path d="M17.033 40.533h8.534v5.334h-8.534v-5.334z" fill="#341409"/><path d="M25.567 46.934h-8.534c-.59 0-1.066-.478-1.066-1.067v-5.334c0-.589.477-1.066 1.066-1.066h8.534c.59 0 1.066.477 1.066 1.066v5.334c0 .589-.477 1.067-1.066 1.067zM18.1 44.8h6.4v-3.2h-6.4v3.2z" fill="#E7490F"/></svg>