<svg width="81" height="80" fill="none" xmlns="http://www.w3.org/2000/svg"><path d="M62.9 38.866a3.204 3.204 0 01-3.2-3.2c0-1.765 1.435-3.2 3.2-3.2 1.765 0 3.2 1.435 3.2 3.2 0 1.764-1.435 3.2-3.2 3.2zm0-4.267a1.068 1.068 0 000 2.133 1.068 1.068 0 000-2.133zm-2.133 13.867a1.067 1.067 0 100-2.133 1.067 1.067 0 000 2.133zm-44.8-14.934a1.067 1.067 0 01-.754-1.82l3.2-3.2a1.067 1.067 0 011.508 1.508l-3.2 3.2a1.063 1.063 0 01-.754.312z" fill="#E7490F"/><path d="M19.167 33.532c-.273 0-.546-.104-.755-.312l-3.2-3.2a1.067 1.067 0 011.509-1.508l3.2 3.2a1.067 1.067 0 01-.754 1.82z" fill="#E7490F"/><path d="M57.567 71.933L56.15 61.93c-.572-4.036-4.46-7.064-9.07-7.064H43.7v-8.533h-8.533v8.533h-3.38c-4.61 0-8.498 3.028-9.07 7.064L21.3 71.933" fill="#341409"/><path d="M57.566 73c-.523 0-.98-.385-1.056-.918L55.094 62.08c-.497-3.505-3.942-6.148-8.014-6.148H43.7c-.59 0-1.067-.477-1.067-1.066v-7.467h-6.4v7.467c0 .589-.477 1.066-1.066 1.066h-3.38c-4.073 0-7.517 2.643-8.014 6.148l-1.417 10.002c-.083.584-.62.995-1.206.907a1.067 1.067 0 01-.906-1.206l1.417-10.002c.644-4.55 4.997-7.982 10.126-7.982H34.1v-7.466c0-.59.477-1.067 1.067-1.067H43.7c.59 0 1.067.477 1.067 1.067v7.466h2.313c5.128 0 9.482 3.431 10.126 7.982l1.417 10.002A1.066 1.066 0 0157.566 73z" fill="#E7490F"/><path d="M39.433 20.866c4.124 0 7.467-2.865 7.467-6.4 0-3.534-3.343-6.4-7.467-6.4-4.123 0-7.466 2.865-7.466 6.4s3.343 6.4 7.466 6.4z" fill="#341409"/><path d="M39.433 21.933c-4.705 0-8.533-3.35-8.533-7.467 0-4.117 3.828-7.467 8.533-7.467 4.706 0 8.534 3.35 8.534 7.467 0 4.117-3.828 7.467-8.534 7.467zm0-12.8c-3.529 0-6.4 2.392-6.4 5.333 0 2.94 2.871 5.333 6.4 5.333 3.53 0 6.4-2.392 6.4-5.333 0-2.94-2.87-5.333-6.4-5.333z" fill="#E7490F"/><path d="M39.433 39C47.092 39 53.3 33.746 53.3 27.266s-6.208-11.733-13.867-11.733c-7.658 0-13.866 5.253-13.866 11.733S31.775 39 39.433 39z" fill="#341409"/><path d="M39.433 40.066c-8.234 0-14.933-5.742-14.933-12.8 0-7.058 6.699-12.8 14.933-12.8 8.235 0 14.934 5.742 14.934 12.8 0 7.058-6.7 12.8-14.934 12.8zm0-23.467c-7.058 0-12.8 4.785-12.8 10.667s5.742 10.667 12.8 10.667c7.059 0 12.8-4.785 12.8-10.667S46.492 16.6 39.433 16.6z" fill="#E7490F"/><path d="M50.1 31.538v-1.072c0-5.891-4.775-9.6-10.667-9.6-5.89 0-10.666 3.709-10.666 9.6v1.072a2.184 2.184 0 00-2.134 2.182v.417c0 1.727 1.162 3.169 2.74 3.629l.668 4.5c.627 4.236 7.022 7.4 9.392 7.4 2.37 0 8.765-3.164 9.393-7.4l.667-4.5a3.784 3.784 0 002.74-3.63v-.416c0-1.19-.95-2.152-2.133-2.181z" fill="#341409"/><path d="M39.433 50.733c-2.658 0-9.706-3.313-10.448-8.312l-.575-3.879c-1.704-.782-2.843-2.505-2.843-4.405v-.417c0-1.412.879-2.602 2.133-3.054v-.2c0-6.18 4.934-10.666 11.733-10.666 6.8 0 11.734 4.485 11.734 10.666v.2A3.228 3.228 0 0153.3 33.72v.417c0 1.9-1.14 3.623-2.844 4.405l-.575 3.88c-.742 4.998-7.79 8.31-10.448 8.31zm0-28.8c-5.652 0-9.6 3.508-9.6 8.533v1.072c0 .579-.461 1.052-1.04 1.066A1.112 1.112 0 0027.7 33.72v.417c0 1.214.793 2.261 1.972 2.604.4.117.696.456.757.868l.667 4.5c.525 3.542 6.317 6.49 8.338 6.49 2.02 0 7.812-2.948 8.337-6.49l.667-4.5c.061-.412.357-.751.757-.868a2.702 2.702 0 001.972-2.604v-.417c0-.61-.48-1.1-1.093-1.116a1.066 1.066 0 01-1.04-1.066v-1.072c0-5.024-3.949-8.533-9.6-8.533z" fill="#E7490F"/><path d="M44.767 34.733a1.067 1.067 0 100-2.134 1.067 1.067 0 000 2.134zm-10.667 0a1.067 1.067 0 100-2.134 1.067 1.067 0 000 2.134zm0-3.201h-2.133a1.066 1.066 0 110-2.133H34.1a1.066 1.066 0 110 2.133zm12.8 0h-2.133a1.066 1.066 0 110-2.133H46.9a1.066 1.066 0 110 2.133zm-5.333-17.066H37.3a1.066 1.066 0 110-2.133h4.267a1.066 1.066 0 110 2.133z" fill="#E7490F"/><path d="M50.1 63.991v-8.666a10.206 10.206 0 00-3.02-.459h-.18v3.2a7.467 7.467 0 11-14.933 0v-3.2h-.18a10.19 10.19 0 00-3.02.46v8.665c-1.27.74-2.134 2.1-2.134 3.675 0 1.575.864 2.936 2.134 3.675v.592H50.1v-.592c1.27-.74 2.133-2.1 2.133-3.675 0-1.575-.863-2.936-2.133-3.675z" fill="#341409"/><path d="M50.1 73H28.767c-.59 0-1.067-.478-1.067-1.067v-.022a5.34 5.34 0 01-2.133-4.245 5.34 5.34 0 012.133-4.245v-8.096c0-.467.304-.88.751-1.018a11.269 11.269 0 013.335-.507h.18c.59 0 1.067.477 1.067 1.066v3.2c0 3.53 2.871 6.4 6.4 6.4 3.53 0 6.4-2.87 6.4-6.4v-3.2c0-.589.477-1.066 1.067-1.066h.18c1.126 0 2.248.17 3.336.507.447.138.75.55.75 1.018v8.096a5.339 5.339 0 012.134 4.245 5.34 5.34 0 01-2.133 4.245v.022c0 .589-.477 1.066-1.067 1.066zm-20.378-2.134h19.423a1.07 1.07 0 01.418-.447c1.005-.584 1.604-1.614 1.604-2.753 0-1.14-.6-2.169-1.604-2.753a1.067 1.067 0 01-.53-.922v-7.845a9.087 9.087 0 00-1.066-.17v2.09c0 4.705-3.828 8.533-8.534 8.533-4.705 0-8.533-3.828-8.533-8.533v-2.09a9.082 9.082 0 00-1.067.17v7.845c0 .38-.202.73-.53.922-1.004.584-1.603 1.614-1.603 2.753 0 1.14.599 2.169 1.603 2.753.183.107.327.263.419.447z" fill="#E7490F"/><path d="M39.433 66.6c-.59 0-1.066-.478-1.066-1.067v-4.267a1.066 1.066 0 112.133 0v4.267c0 .589-.477 1.066-1.067 1.066z" fill="#E7490F"/></svg>