<svg width="81" height="80" fill="none" xmlns="http://www.w3.org/2000/svg"><path d="M23.29 44.026c-.269 0-.538-.105-.744-.313l-3.448-3.492a1.076 1.076 0 010-1.508 1.044 1.044 0 011.49 0l3.447 3.492a1.076 1.076 0 010 1.508 1.044 1.044 0 01-.744.313z" fill="#E7490F"/><path d="M19.843 44.026c-.27 0-.54-.105-.745-.313a1.076 1.076 0 010-1.508l3.448-3.492a1.044 1.044 0 011.49 0 1.076 1.076 0 010 1.508l-3.449 3.492a1.043 1.043 0 01-.744.313zm-6.176-20.559c-1.743 0-3.16-1.436-3.16-3.2 0-1.765 1.417-3.2 3.16-3.2 1.742 0 3.16 1.435 3.16 3.2 0 1.764-1.418 3.2-3.16 3.2zm0-4.267c-.58 0-1.054.479-1.054 1.067s.473 1.066 1.054 1.066c.58 0 1.053-.478 1.053-1.066 0-.588-.473-1.067-1.053-1.067zm9.48 12.8a1.06 1.06 0 001.053-1.067 1.06 1.06 0 00-1.053-1.066 1.06 1.06 0 00-1.054 1.066c0 .59.472 1.067 1.054 1.067z" fill="#E7490F"/><path d="M31.573 49.605V12.8h16.854v54.4H31.573V54.4" fill="#341409"/><path d="M48.427 68.267H31.573A1.06 1.06 0 0130.52 67.2V54.4a1.06 1.06 0 011.053-1.067 1.06 1.06 0 011.054 1.067v11.733h14.746V13.867H32.627v35.738a1.06 1.06 0 01-1.054 1.067 1.06 1.06 0 01-1.053-1.067V12.8a1.06 1.06 0 011.053-1.067h16.854A1.06 1.06 0 0149.48 12.8v54.4a1.06 1.06 0 01-1.053 1.067z" fill="#E7490F"/><path d="M43.16 33.067h-6.32A1.06 1.06 0 0135.787 32c0-.589.47-1.066 1.053-1.066h6.32A1.06 1.06 0 0144.213 32a1.06 1.06 0 01-1.053 1.067zm0 3.2h-6.32a1.06 1.06 0 01-1.053-1.067c0-.59.47-1.067 1.053-1.067h6.32a1.06 1.06 0 011.053 1.067 1.06 1.06 0 01-1.053 1.067zm0 3.2h-6.32a1.06 1.06 0 01-1.053-1.067 1.06 1.06 0 011.053-1.067h6.32a1.06 1.06 0 011.053 1.067 1.06 1.06 0 01-1.053 1.067z" fill="#E7490F"/><path d="M43.16 46.933c1.164 0 2.107-.955 2.107-2.133s-.944-2.133-2.107-2.133c-1.163 0-2.107.955-2.107 2.133s.944 2.133 2.107 2.133z" fill="#341409"/><path d="M43.16 48C41.418 48 40 46.565 40 44.8c0-1.764 1.417-3.2 3.16-3.2s3.16 1.436 3.16 3.2c0 1.765-1.417 3.2-3.16 3.2zm0-4.267c-.581 0-1.053.48-1.053 1.067 0 .588.472 1.067 1.053 1.067s1.053-.479 1.053-1.067-.472-1.067-1.053-1.067z" fill="#E7490F"/><path d="M48.427 12.8H65.28v54.4H48.427V12.8z" fill="#341409"/><path d="M65.28 68.267H48.427a1.06 1.06 0 01-1.054-1.067V12.8a1.06 1.06 0 011.054-1.067H65.28a1.06 1.06 0 011.053 1.067v54.4a1.06 1.06 0 01-1.053 1.067zm-15.8-2.134h14.747V13.867H49.48v52.266z" fill="#E7490F"/><path d="M61.067 26.667h-4.214A1.06 1.06 0 0155.8 25.6v-4.267a1.06 1.06 0 011.053-1.066h2.993a.169.169 0 00.167-.17v-1.794a.169.169 0 00-.167-.17h-2.993a1.06 1.06 0 01-1.053-1.066c0-.59.471-1.067 1.053-1.067h2.993c1.254 0 2.274 1.033 2.274 2.303v1.794c0 1.27-1.02 2.303-2.274 2.303h-1.94v2.133h3.16A1.06 1.06 0 0162.12 25.6a1.06 1.06 0 01-1.053 1.067zm-24.227 0a1.06 1.06 0 01-1.053-1.067v-7.467h-1.054a1.06 1.06 0 01-1.053-1.066c0-.59.472-1.067 1.053-1.067h2.107a1.06 1.06 0 011.053 1.067V25.6a1.06 1.06 0 01-1.053 1.067zm6.32 0a1.06 1.06 0 01-1.053-1.067v-7.467h-1.053A1.06 1.06 0 0140 17.067c0-.59.471-1.067 1.053-1.067h2.107a1.06 1.06 0 011.054 1.067V25.6a1.06 1.06 0 01-1.054 1.067zm16.854 6.4h-6.32A1.06 1.06 0 0152.64 32c0-.59.471-1.067 1.053-1.067h6.32A1.06 1.06 0 0161.068 32a1.06 1.06 0 01-1.053 1.067zm0 3.2h-6.32A1.06 1.06 0 0152.64 35.2c0-.59.471-1.067 1.053-1.067h6.32a1.06 1.06 0 011.054 1.067 1.06 1.06 0 01-1.053 1.067zm0 3.2h-6.32A1.06 1.06 0 0152.64 38.4a1.06 1.06 0 011.053-1.067h6.32a1.06 1.06 0 011.054 1.067 1.06 1.06 0 01-1.053 1.067z" fill="#E7490F"/><path d="M60.013 46.933c1.164 0 2.107-.955 2.107-2.133s-.943-2.133-2.107-2.133c-1.163 0-2.106.955-2.106 2.133s.943 2.133 2.106 2.133z" fill="#341409"/><path d="M60.013 48c-1.742 0-3.16-1.435-3.16-3.2 0-1.764 1.418-3.2 3.16-3.2 1.743 0 3.16 1.436 3.16 3.2 0 1.765-1.417 3.2-3.16 3.2zm0-4.267c-.58 0-1.053.48-1.053 1.067 0 .588.472 1.067 1.053 1.067.582 0 1.054-.479 1.054-1.067s-.472-1.067-1.054-1.067zm-6.32-17.066A1.06 1.06 0 0152.64 25.6v-7.467h-1.053a1.06 1.06 0 01-1.054-1.066c0-.59.471-1.067 1.054-1.067h2.106a1.06 1.06 0 011.054 1.067V25.6a1.06 1.06 0 01-1.054 1.067zm15.8 41.6H10.507A1.06 1.06 0 019.453 67.2a1.06 1.06 0 011.054-1.067h58.986a1.06 1.06 0 011.054 1.067 1.06 1.06 0 01-1.054 1.067z" fill="#E7490F"/><path d="M61.067 58.667H15.773V57.6c0-1.767 1.415-3.2 3.16-3.2h38.974c1.745 0 3.16 1.433 3.16 3.2v1.067z" fill="#341409"/><path d="M61.067 59.733H15.773a1.06 1.06 0 01-1.053-1.066V57.6c0-2.352 1.89-4.267 4.213-4.267h38.974c2.323 0 4.213 1.915 4.213 4.267v1.067a1.06 1.06 0 01-1.053 1.066zM16.827 57.6h43.186c0-1.176-.945-2.133-2.106-2.133H18.933c-1.161 0-2.106.957-2.106 2.133z" fill="#E7490F"/><path d="M22.093 58.667h3.16V67.2h-3.16v-8.533z" fill="#341409"/><path d="M25.253 68.267h-3.16A1.06 1.06 0 0121.04 67.2v-8.533c0-.59.472-1.067 1.053-1.067h3.16a1.06 1.06 0 011.054 1.067V67.2a1.06 1.06 0 01-1.054 1.067zm-2.106-2.134H24.2v-6.4h-1.053v6.4z" fill="#E7490F"/><path d="M51.587 58.667h3.16V67.2h-3.16v-8.533z" fill="#341409"/><path d="M54.747 68.267h-3.16a1.06 1.06 0 01-1.054-1.067v-8.533c0-.59.471-1.067 1.054-1.067h3.16a1.06 1.06 0 011.053 1.067V67.2a1.06 1.06 0 01-1.053 1.067zm-2.107-2.134h1.053v-6.4H52.64v6.4z" fill="#E7490F"/></svg>